<svg width="40" height="57" viewBox="0 0 40 57" fill="none" xmlns="http://www.w3.org/2000/svg">
    <path d="M19.9991 0C11.1625 0 3.99805 7.16448 3.99805 16.0011C3.99805 24.8377 11.1625 32.0022 19.9991 32.0022C28.8357 32.0022 36.0002 24.8377 36.0002 16.0011C36.0002 7.16448 28.8357 0 19.9991 0ZM19.9991 29.734C12.4146 29.734 6.2662 23.5856 6.2662 16.0011C6.2662 8.41257 12.4146 2.26415 19.9991 2.26415C27.5836 2.26415 33.7361 8.41257 33.7361 16.0011C33.7361 23.5856 27.5836 29.734 19.9991 29.734Z" fill="#145BA9"/>
    <path d="M33.6022 16.0011C33.6022 19.7549 32.0789 23.1551 29.6199 25.6196C27.1554 28.0787 23.7606 29.602 20.0013 29.602C16.242 29.602 12.8472 28.0787 10.3827 25.6196C7.92369 23.1551 6.40039 19.7549 6.40039 16.0011C6.40039 12.2472 7.92369 8.84154 10.3827 6.3825C12.8472 3.92345 16.242 2.40015 20.0013 2.40015C27.5145 2.40015 33.6022 8.48792 33.6022 16.0011Z" fill="white"/>
    <path d="M39.2005 21.6095C38.5445 23.8456 37.5044 25.9458 36.1363 27.8219C36.1283 27.8259 36.1243 27.8299 36.1243 27.8339C35.4883 28.5699 34.8002 29.37 34.0722 30.2141C26.5116 38.9867 14.6228 52.7796 12.1987 55.2037C9.4785 57.9239 6.99833 56.2038 6.5983 54.0037L0.437887 20.1694L0.233873 19.0533C-0.0261444 17.3652 -0.0701473 15.6451 0.105865 13.937C0.157868 13.4369 0.609899 13.0809 1.10593 13.1529C1.56596 13.2209 1.88999 13.6369 1.84198 14.101C1.59797 16.4331 1.80998 18.7893 2.45802 21.0454C3.18207 23.5696 4.44216 25.9058 6.15427 27.8939C7.86239 29.886 9.98253 31.4821 12.3627 32.5782C14.7469 33.6783 17.339 34.2463 19.9632 34.2543C22.5874 34.2583 25.1796 33.6983 27.5677 32.6102C29.9559 31.5221 32.08 29.934 33.8001 27.9499C35.5163 25.9658 36.7843 23.6376 37.5204 21.1174C38.1804 18.8613 38.3965 16.5091 38.1604 14.177C38.1124 13.7169 38.4405 13.3009 38.9005 13.2329C39.3965 13.1609 39.8525 13.5169 39.9006 14.017C40.1566 16.5651 39.9166 19.1453 39.2005 21.6095Z" fill="#145BA9"/>
    <path d="M27.0839 15.9368L26.6231 21.555C26.5053 23.0087 24.3408 22.8087 24.4587 21.38L24.8159 17.0047L23.3479 17.0869C23.7087 17.8262 23.9122 18.6548 23.9122 19.5334C23.9122 21.005 23.3372 22.3444 22.4014 23.3373L20.9978 21.9336C23.0658 19.6585 21.4657 15.9618 18.3547 15.9618C17.4297 15.9618 16.5868 16.3154 15.9546 16.8904L14.5509 15.4867C15.3367 14.7474 16.3403 14.2331 17.4582 14.0509L20.1477 10.99L18.6262 10.1042L16.7832 11.7472C15.7117 12.7044 14.2616 11.0864 15.3367 10.1257L17.7654 7.95767C18.1154 7.64336 18.6262 7.59336 19.0333 7.82909C19.0333 7.82909 24.0087 10.7186 24.0158 10.7257C24.5944 11.0864 24.7552 12.0115 24.2337 12.6044L22.1478 14.9796L25.9374 14.7688C26.5981 14.7296 27.1375 15.2832 27.0839 15.9368ZM24.7659 10.4364C25.7695 10.4364 26.5839 9.62206 26.5839 8.61843C26.5839 7.61479 25.7695 6.80045 24.7659 6.80045C23.7622 6.80045 22.9479 7.61479 22.9479 8.61843C22.9479 9.62206 23.7622 10.4364 24.7659 10.4364ZM18.3583 23.1051C15.4795 23.1051 13.808 19.8692 15.4045 17.5297L13.9866 16.1118C13.2437 17.0511 12.8008 18.2405 12.8008 19.5299C12.8008 24.198 18.1833 26.7232 21.78 23.9052L20.362 22.4872C19.7905 22.8765 19.1012 23.1051 18.3583 23.1051Z" fill="black"/>
</svg>
